<?xml version="1.0" encoding="utf-8"?>
<!-- Generator: Adobe Illustrator 22.1.0, SVG Export Plug-In . SVG Version: 6.00 Build 0)  -->
<svg version="1.1" id="Warstwa_1" xmlns="http://www.w3.org/2000/svg" xmlns:xlink="http://www.w3.org/1999/xlink" x="0px" y="0px"
	 viewBox="0 0 94.4 77.8" enable-background="new 0 0 94.4 77.8" xml:space="preserve">
<path fill="#29AA04" d="M38.7,17.6c0.2-2.3,1.5-4,1.3-6.5c0-0.1-0.1-0.2-0.2-0.2c-2.7,0.1-4.9,1.5-6.8,3.4c-5,5.1-7.3,11-5.6,18.2
	c0.2,0.9,1.1,2.5-0.3,2.9c-1.6,0.5-1.5-1.5-1.7-2.3C23.5,24,27.5,12.5,36.1,9.5c2.3-0.8,5.4-2.6,7.1,0.4c0.5,0.8,0.3,1.2,0.5,1
	c0.5-0.5,1.4-1.2,2-1.5c2.1-1.3,4-2.7,6.2-3.8c2.2-1.1,3.4-0.1,3.1,2.2c-0.3,2.2-0.9,4.3-1.4,6.5c-0.3,1.3-1.2,1.2-2.1,1.1
	c-0.2,0-0.3-0.1-0.4-0.2c-1.2-1.7-0.1-3.3,0.2-5.1c0-0.2-0.2-0.3-0.3-0.2c-3.7,1.9-7.3,3.7-9.7,7.2"/>
<path fill="#29AA04" d="M39.5,19.5"/>
<path fill="#FF1200" d="M56.8,21.9c-0.2,9.4-7.5,18.6-15.9,20.9c-1.1,0.3-2.1,0.5-2.5-0.7c-0.4-1.2,0.9-1.2,1.6-1.6
	c8.9-4.1,15-10.3,14.8-20.9c0-0.5-0.2-1.1,0.5-1.1c0.4,0,1,0.4,1.1,0.7C56.6,20.3,56.7,21.4,56.8,21.9z"/>
<path fill="#FF1200" d="M66.4,33.9c-1.2,1.6-2.2,3-3.3,4.3c-3.2,4.1-7.2,7.3-12.3,8.5c-5,1.3-10.3,1.9-14.8-1.9
	c-2.1-1.8-2.7-3.4,0-5.6c5.9-4.9,11.1-10.5,15.8-16.6c1.7-2.3,1.8-3.5-1.2-4.2c-3.7-1.1-7.1,0.2-11.2,3c-3.4,2.9-6.5,6-8.2,10.3
	c-3.4,8.5,0.5,15.7,9.4,17.6c9,1.9,20.2-2.8,25.2-10.6C66.6,37.3,67.4,35.9,66.4,33.9z M33.1,38.3c0.6-9.4,7.9-17,16.8-18.1
	C45.2,26.9,39.7,32.6,33.1,38.3z"/>
<text transform="matrix(1 0 0 1 2.9691 70.4863)" fill="#FFFFFF" font-family="'KhmerMN'" font-size="21.9496px">CIERNIAK</text>
</svg>
