<?xml version="1.0" encoding="utf-8"?>
<!-- Generator: Adobe Illustrator 22.1.0, SVG Export Plug-In . SVG Version: 6.00 Build 0)  -->
<svg version="1.1" id="Warstwa_1" xmlns="http://www.w3.org/2000/svg" xmlns:xlink="http://www.w3.org/1999/xlink" x="0px" y="0px"
	 viewBox="0 0 100 100" enable-background="new 0 0 100 100" xml:space="preserve">
<path fill="#EF2B11" d="M58.9,32.1c5.3,1.2,5.2,3.5,2.1,7.4c-8.3,10.7-17.4,20.6-27.7,29.3c-4.7,3.9-3.6,6.7,0,9.8
	c7.9,6.7,17.2,5.6,26,3.4c8.8-2.2,15.9-7.8,21.6-15c1.8-2.3,3.6-4.7,5.7-7.6c1.9,3.5,0.4,5.9-1,8.2c-8.7,13.8-28.4,22.1-44.3,18.7
	c-15.7-3.3-22.5-16.1-16.5-30.9c3-7.5,8.5-13,14.5-18.1C46.4,32.5,52.3,30.2,58.9,32.1z"/>
<path fill="#29AA04" d="M36.8,34.8c-2-3.5,2.7-7.1,2.2-11.4c0-0.2-0.2-0.3-0.4-0.3c-4.8,0.2-8.7,2.7-11.9,6
	c-8.8,8.9-12.8,19.4-9.9,32c0.4,1.6,2,4.4-0.4,5.1c-2.8,0.9-2.7-2.6-3-4C10.1,46,17.2,25.9,32.3,20.5c4-1.5,8.4-3.8,12.5,0.6
	c1.4,1.5,2.7-0.4,3.9-1c3.8-2,7.4-4.4,11.3-6.4c3.9-2,6-0.2,5.5,3.9C65,21.4,63.8,25.2,63,29c-0.5,2.3-2.1,2.1-3.7,2
	c-0.3,0-0.5-0.2-0.7-0.4c-2.2-3-0.2-5.9,0.4-9c0.1-0.3-0.3-0.5-0.5-0.4c-6.5,3.3-12.8,6.5-17.1,12.7c-0.6,0.9-1.4,1.6-2.3,1.9
	C38.2,36,37.3,35.6,36.8,34.8z"/>
<path fill="#EF2B11" d="M69.6,38.3c-0.4,16.5-13.1,32.7-28,36.9c-1.9,0.5-3.7,0.8-4.3-1.3c-0.6-2.1,1.6-2.2,2.8-2.8
	C55.8,63.9,66.4,53,66.2,34.4c0-0.9-0.3-1.9,0.9-1.9c0.7,0,1.8,0.7,1.9,1.3C69.4,35.6,69.5,37.6,69.6,38.3z"/>
<path fill="#FBFBFB" d="M28.1,67.2c1.1-16.5,13.9-29.9,29.6-31.9C49.3,47.2,39.6,57.2,28.1,67.2z"/>
</svg>
