<?xml version="1.0" encoding="utf-8"?>
<!-- Generator: Adobe Illustrator 22.1.0, SVG Export Plug-In . SVG Version: 6.00 Build 0)  -->
<svg version="1.1" id="Capa_1" xmlns="http://www.w3.org/2000/svg" xmlns:xlink="http://www.w3.org/1999/xlink" x="0px" y="0px"
	 viewBox="0 0 100 100" style="enable-background:new 0 0 100 100;" xml:space="preserve">
<style type="text/css">
	.st0{fill:#FFFFFF;}
</style>
<g>
	<g>
		<path class="st0" d="M65.6,62.6c5.3-5.7,8.6-13.3,8.6-21.8c0-17.7-14.4-32.1-32.1-32.1S10,23.2,10,40.8s14.4,32.1,32.1,32.1
			c7.2,0,13.8-2.4,19.2-6.4l23.8,23.8c0.6,0.6,1.3,0.9,2,0.9s1.5-0.3,2-0.9c1.1-1.1,1.1-2.9,0-4.1L65.6,62.6z M15.8,40.8
			c0-14.5,11.8-26.3,26.3-26.3c14.5,0,26.3,11.8,26.3,26.3S56.6,67.1,42.1,67.1S15.8,55.3,15.8,40.8z"/>
	</g>
</g>
</svg>
